# 3ds Max Wavefront OBJ Exporter v0.97b - (c)2007 guruware
# File Created: 08.01.2016 18:12:00

mtllib 3d-model.mtl

#
# object Layer0_001
#

v  -0.9842 2.7559 25.5905
v  -0.9842 2.7559 -31.4961
v  8.8583 2.7559 -31.4961
v  8.8583 2.7559 25.5905
v  -0.9842 0.0000 25.5905
v  -0.9842 0.0000 -31.4961
v  8.8583 0.0000 -31.4961
v  8.8583 0.0000 25.5905
v  8.8583 21.6535 31.4961
v  8.8583 2.7559 31.4961
v  8.8583 23.6220 -31.4961
v  8.8583 23.6220 31.4961
v  8.8583 21.6535 -31.4961
v  -8.8583 2.7559 -31.4961
v  -8.8583 21.6535 -31.4961
v  -8.8583 23.6220 -31.4961
v  8.0709 23.6220 -31.4961
# 17 vertices

vn 0.0000 -1.0000 -0.0000
vn 1.0000 -0.0000 -0.0000
vn 0.0000 0.0000 -1.0000
# 3 vertex normals

vt 0.0000 0.0000 0.0000
vt -9.3872 0.0350 0.0000
vt -8.8872 0.0350 0.0000
vt -8.8872 0.2750 0.0000
vt -10.0122 0.0350 0.0000
vt -10.0122 0.2750 0.0000
vt -10.0122 0.0000 0.0000
vt -9.3872 0.0000 0.0000
# 8 texture coords

g Layer0_001
usemtl skp_front_default
s off
f 1/1/1 2/1/1 3/1/1 4/1/1 
f 5/1/1 6/1/1 7/1/1 8/1/1 
f 9/1/2 10/1/2 4/1/2 11/1/2 
f 9/1/2 11/1/2 12/1/2 
f 11/1/2 4/1/2 3/1/2 13/1/2 
usemtl Wood_Cherry_Original
f 2/2/3 14/3/3 15/4/3 3/5/3 
f 3/5/3 15/4/3 13/6/3 
f 7/7/3 6/8/3 2/2/3 3/5/3 
usemtl Color_000
f 13/1/3 15/1/3 16/1/3 11/1/3 
f 11/1/3 16/1/3 17/1/3 
# 7 polygons - 3 triangles

#
# object meble_001
#

v  8.0709 23.6220 31.4961
v  8.8583 23.6220 31.4961
v  8.8583 48.3071 31.4961
v  8.0709 31.7192 31.4961
v  8.0709 32.1129 31.4961
v  8.0709 39.8163 31.4961
v  8.0709 40.2100 31.4961
v  8.0709 48.3071 31.4961
v  -8.8583 23.6220 31.4961
v  8.8583 21.6535 31.4961
v  -8.1496 21.6535 31.4961
v  -8.8583 21.6535 31.4961
v  -8.8583 21.6535 10.2625
v  -8.8583 23.6220 -31.4961
v  -8.8583 21.6535 -10.2625
v  -8.8583 21.6535 -30.7874
v  -8.8583 21.6535 -31.4961
v  -8.8583 2.7559 -30.7874
v  -8.8583 2.7559 -31.4961
v  -0.9842 2.7559 -31.4961
v  -8.8583 2.7559 -10.2625
v  -8.8583 2.7559 10.2625
v  -8.8583 2.7559 31.4961
v  -8.1496 2.7559 31.4961
v  -0.9842 2.7559 31.4961
v  -0.9842 2.7559 25.5905
v  -2.9527 70.2362 31.4961
v  -2.9527 70.3543 31.4961
v  -2.9527 70.3543 31.3779
v  -2.9527 48.3071 31.3779
v  -2.9527 48.3071 31.4961
v  -2.9527 48.4252 31.4961
v  8.0709 23.6220 -31.4961
v  8.8583 70.3543 31.4961
v  8.8583 48.3071 -31.4961
v  8.8583 70.3543 -31.4961
v  8.0709 48.3071 -31.4961
v  -2.9527 69.9606 30.9843
v  -2.9527 48.7008 30.9843
v  -2.9527 70.3543 10.2625
v  -2.9527 69.9606 10.6562
v  -2.9527 48.7008 10.6562
v  -2.9527 48.3071 10.2625
v  8.8583 2.7559 25.5905
v  8.8583 2.7559 31.4961
v  -2.9527 70.3543 -10.2625
v  -2.9527 70.3543 -31.4961
v  -2.9527 69.9606 9.8688
v  -2.9527 69.9606 -9.8688
v  -2.9527 48.7008 -9.8688
v  -2.9527 48.3071 -10.2625
v  -2.9527 48.7008 9.8688
v  -2.9527 69.9606 -10.6562
v  -2.9527 69.9606 -31.1024
v  -2.9527 48.3071 -31.4961
v  -2.9527 48.7008 -31.1024
v  -2.9527 48.7008 -10.6562
v  8.8583 23.6220 -31.4961
v  8.8583 0.0000 25.5905
v  8.8583 0.0000 -31.4961
v  8.8583 2.7559 -31.4961
v  -8.8583 15.5249 -10.2625
v  -8.8583 9.3963 -10.2625
v  -8.8583 15.5249 10.2625
v  -8.8583 9.3963 10.2625
v  8.0709 31.7192 -31.4961
v  8.0709 32.1129 -31.4961
v  8.0709 39.8163 -31.4961
v  8.0709 40.2100 -31.4961
v  8.0709 31.7192 19.3554
v  8.0709 31.7192 -0.0000
v  -0.9842 0.0000 25.5905
v  8.0709 40.2100 -12.5041
v  8.0709 40.2100 -27.9554
v  8.0709 39.8163 -12.5041
v  8.0709 32.1129 19.3554
v  8.0709 32.1129 -0.0000
v  8.0709 39.8163 -27.9554
v  -0.9842 0.0000 -31.4961
v  2.5591 39.8163 -27.9554
v  2.5591 40.2100 -27.9554
v  2.5591 39.8163 -12.5041
v  2.5591 40.2100 -12.5041
v  2.5591 31.7192 19.3554
v  2.5591 32.1129 19.3554
v  2.5591 32.1129 -0.0000
v  2.5591 31.7192 -0.0000
# 87 vertices

vn 0.0000 0.0000 1.0000
vn -1.0000 0.0000 0.0000
vn 0.0000 -1.0000 -0.0000
vn 0.0000 1.0000 -0.0000
vn 1.0000 -0.0000 -0.0000
vn -1.0000 0.0000 -0.0000
vn 0.0000 -0.0000 -1.0000
vn 0.0000 -1.0000 0.0000
vn 0.0000 0.0000 -1.0000
vn -0.0000 -1.0000 0.0000
# 10 vertex normals

vt 0.0000 0.0000 0.0000
vt 7.1750 -0.0500 0.0000
vt 7.1750 -0.1750 0.0000
vt 8.3750 -0.1750 0.0000
vt 8.3750 0.0410 0.0000
vt 7.1750 0.0410 0.0000
vt -13.3629 0.0350 0.0000
vt -13.3629 0.2750 0.0000
vt -13.4079 0.2750 0.0000
vt -13.4079 0.0350 0.0000
vt -9.5142 0.0453 0.0000
vt -9.1250 0.0453 0.0000
vt -9.1250 0.3060 0.0000
vt -9.9033 0.0453 0.0000
vt -10.3250 0.0453 0.0000
vt -10.3250 0.3060 0.0000
vt -8.7967 -0.0653 0.0000
vt -8.4075 -0.0653 0.0000
vt -8.4075 0.1953 0.0000
vt -8.7967 0.1953 0.0000
vt -8.0750 -0.0350 0.0000
vt -6.8750 -0.0350 0.0000
vt -6.8750 0.2347 0.0000
vt -8.0750 0.2347 0.0000
vt -7.2642 0.2347 0.0000
vt -7.6533 0.2347 0.0000
vt -9.1858 -0.0653 0.0000
vt -9.1858 0.1953 0.0000
vt -8.8250 -0.2153 0.0000
vt -8.4033 -0.2153 0.0000
vt -8.4033 0.0453 0.0000
vt -8.8250 0.0453 0.0000
vt 8.8872 0.0350 0.0000
vt 8.9322 0.0350 0.0000
vt 8.9322 0.2750 0.0000
vt 8.8872 0.2750 0.0000
vt -10.0122 0.3000 0.0000
vt -9.9622 0.3000 0.0000
vt -9.9622 0.4028 0.0000
vt -10.0122 0.6135 0.0000
vt -9.9622 0.4078 0.0000
vt -9.9622 0.5057 0.0000
vt -9.9622 0.5107 0.0000
vt -9.9622 0.6135 0.0000
vt -7.5000 0.9150 0.0000
vt -7.5000 0.1150 0.0000
vt -6.9858 0.1150 0.0000
vt -6.9858 0.2692 0.0000
vt -6.9858 0.5150 0.0000
vt -6.9858 0.9150 0.0000
vt 9.3872 0.0000 0.0000
vt 10.0122 0.0000 0.0000
vt 10.0122 0.0350 0.0000
vt 9.3872 0.0350 0.0000
vt 9.9622 0.6135 0.0000
vt 10.0122 0.6135 0.0000
vt 10.0122 0.8935 0.0000
vt 9.2622 0.6135 0.0000
vt 9.2622 0.6150 0.0000
vt 9.2622 0.8920 0.0000
vt 9.2622 0.8935 0.0000
vt -9.2622 2.4119 0.0000
vt -9.2622 2.6816 0.0000
vt -9.9622 2.6816 0.0000
vt -9.2622 2.1512 0.0000
vt -9.9622 1.8816 0.0000
vt -9.2622 1.8816 0.0000
vt -9.2622 1.8831 0.0000
vt -9.2622 0.6135 0.0000
vt -10.0122 0.8935 0.0000
vt -9.2622 0.8935 0.0000
vt -6.4467 0.6738 0.0000
vt -6.4467 0.1150 0.0000
vt -5.9325 0.1150 0.0000
vt -5.9325 0.9150 0.0000
vt -6.4467 0.8700 0.0000
vt -6.4467 0.9150 0.0000
vt -6.9608 0.1150 0.0000
vt -6.4717 0.1150 0.0000
vt -6.4717 0.6738 0.0000
vt -6.9608 0.2692 0.0000
vt -6.9608 0.5150 0.0000
vt -6.9608 0.9150 0.0000
vt -6.4717 0.8700 0.0000
vt -6.4717 0.9150 0.0000
vt -8.0000 -0.2100 0.0000
vt -7.8250 -0.2100 0.0000
vt -7.8250 0.5150 0.0000
vt -8.0000 0.5150 0.0000
# 89 texture coords

g meble_001
usemtl skp_front_default
s off
f 18/9/4 19/9/4 20/9/4 21/9/4 
f 22/9/4 21/9/4 20/9/4 23/9/4 
f 24/9/4 23/9/4 20/9/4 25/9/4 
f 19/9/4 18/9/4 26/9/4 27/9/4 
f 28/9/4 27/9/4 26/9/4 29/9/4 
f 30/9/5 29/9/5 26/9/5 31/9/5 
f 32/9/5 30/9/5 31/9/5 33/9/5 
f 33/9/5 31/9/5 34/9/5 
f 35/9/6 36/9/6 37/9/6 38/9/6 
f 39/9/6 38/9/6 37/9/6 40/9/6 
f 41/9/6 40/9/6 37/9/6 42/9/6 
f 42/9/6 37/9/6 43/9/6 
f 44/9/5 45/9/5 46/9/5 47/9/5 
f 44/9/5 47/9/5 48/9/5 49/9/5 
f 50/9/7 31/9/7 26/9/7 18/9/7 
f 51/9/8 20/9/8 52/9/8 53/9/8 
f 54/9/7 25/9/7 20/9/7 52/9/7 
f 55/9/5 56/9/5 46/9/5 57/9/5 
f 58/9/5 55/9/5 57/9/5 59/9/5 
f 59/9/5 57/9/5 60/9/5 56/9/5 
f 56/9/5 60/9/5 47/9/5 46/9/5 
f 42/9/6 43/9/6 61/9/6 62/9/6 
f 46/9/7 45/9/7 51/9/7 57/9/7 
f 57/9/7 51/9/7 53/9/7 63/9/7 
f 63/9/7 53/9/7 64/9/7 
f 65/9/5 60/9/5 57/9/5 63/9/5 
f 66/9/5 65/9/5 63/9/5 67/9/5 
f 67/9/5 63/9/5 68/9/5 69/9/5 
f 69/9/5 68/9/5 60/9/5 65/9/5 
f 70/9/5 68/9/5 63/9/5 64/9/5 
f 71/9/5 70/9/5 64/9/5 72/9/5 
f 73/9/5 71/9/5 72/9/5 74/9/5 
f 74/9/5 72/9/5 68/9/5 70/9/5 
f 20/9/8 19/9/8 75/9/8 52/9/8 
f 61/9/8 76/9/8 77/9/8 78/9/8 
usemtl Wood_Cherry_Original
f 42/10/4 62/11/4 27/12/4 28/13/4 
f 28/13/4 41/14/4 42/10/4 
f 35/15/9 33/16/9 34/17/9 36/18/9 
f 79/19/9 32/20/9 33/21/9 80/22/9 
f 38/23/9 80/22/9 33/21/9 35/24/9 
f 81/25/9 30/26/9 32/27/9 79/28/9 
f 40/29/9 29/30/9 30/31/9 39/32/9 
f 39/32/9 30/31/9 81/33/9 82/34/9 
f 82/35/9 81/25/9 79/28/9 80/36/9 
f 39/37/9 82/38/9 80/39/9 38/40/9 
f 40/41/4 41/42/4 28/43/4 29/44/4 
f 75/45/10 50/46/10 83/47/10 52/48/10 
f 52/48/10 83/47/10 84/49/10 85/50/10 
f 52/48/10 85/50/10 86/51/10 54/52/10 
f 50/53/9 18/54/9 21/55/9 87/56/9 
f 50/53/9 87/56/9 88/57/9 83/58/9 
f 89/59/4 76/60/4 61/61/4 43/62/4 
f 25/63/4 20/64/4 51/65/4 48/66/4 
f 49/67/4 48/66/4 51/65/4 44/68/4 
f 44/68/4 51/65/4 45/69/4 
f 68/70/11 72/71/11 54/72/11 60/73/11 
f 60/73/11 54/72/11 25/74/11 48/75/11 
f 60/73/11 48/75/11 47/76/11 
f 52/48/10 54/52/10 72/77/10 53/78/10 
f 53/78/10 72/77/10 64/79/10 
f 90/80/9 24/81/9 25/82/9 54/83/9 
f 91/84/9 90/80/9 54/83/9 86/85/9 
f 22/86/9 23/87/9 92/88/9 93/89/9 
f 94/90/9 93/89/9 92/88/9 84/91/9 
f 84/91/9 92/88/9 95/92/9 85/93/9 
f 89/94/9 43/95/9 37/96/9 96/97/9 
usemtl Color_002
f 95/9/9 91/9/9 86/9/9 85/9/9 
f 88/9/9 94/9/9 84/9/9 83/9/9 
f 92/9/9 23/9/9 24/9/9 90/9/9 
f 87/9/9 21/9/9 22/9/9 93/9/9 
usemtl Translucent_Glass_Blue
f 95/9/12 97/9/12 98/9/12 91/9/12 
f 99/9/11 97/9/11 95/9/11 92/9/11 
f 99/9/4 92/9/4 90/9/4 100/9/4 
f 99/9/9 100/9/9 98/9/9 97/9/9 
f 98/9/7 100/9/7 90/9/7 91/9/7 
f 59/9/9 56/9/9 55/9/9 58/9/9 
f 69/9/9 65/9/9 66/9/9 67/9/9 
f 74/9/9 70/9/9 71/9/9 73/9/9 
usemtl Translucent_Glass_Green_Dark
f 101/9/9 102/9/9 103/9/9 104/9/9 
f 101/9/13 104/9/13 88/9/13 87/9/13 
f 101/9/4 87/9/4 93/9/4 102/9/4 
f 103/9/7 102/9/7 93/9/7 94/9/7 
f 88/9/12 104/9/12 103/9/12 94/9/12 
# 76 polygons - 7 triangles

