# Blender v3.2.0 OBJ File: 'cupboard.blend'
# www.blender.org
mtllib cupboard_1.mtl
o Cupcoard_Würfel.016
v -1.000000 -0.050000 2.000000
v -1.000000 0.050000 2.000000
v -1.000000 -0.050000 -2.000000
v -1.000000 0.050000 -2.000000
v 1.000000 -0.050000 2.000000
v 1.000000 0.050000 2.000000
v 1.000000 -0.050000 -2.000000
v 1.000000 0.050000 -2.000000
v -1.000000 1.950000 1.900000
v -1.000000 2.050000 1.900000
v -1.000000 1.950000 -1.900000
v -1.000000 2.050000 -1.900000
v 1.000000 1.950000 1.900000
v 1.000000 2.050000 1.900000
v 1.000000 1.950000 -1.900000
v 1.000000 2.050000 -1.900000
v -1.000000 3.435689 1.899999
v -1.000000 3.535689 1.899999
v -1.000000 3.435688 -1.900001
v -1.000000 3.535688 -1.900001
v 1.000000 3.435689 1.899999
v 1.000000 3.535689 1.899999
v 1.000000 3.435688 -1.900001
v 1.000000 3.535688 -1.900001
v -1.000000 0.050000 1.998444
v -1.000000 6.050000 1.998443
v -1.000000 0.050000 1.898444
v -1.000000 6.050000 1.898443
v 1.000000 0.050000 1.998444
v 1.000000 6.050000 1.998443
v 1.000000 0.050000 1.898444
v 1.000000 6.050000 1.898443
v -1.000000 0.050000 -1.900000
v -1.000000 6.049999 -1.900001
v -1.000000 0.050000 -2.000000
v -1.000000 6.049999 -2.000001
v 1.000000 0.050000 -1.900000
v 1.000000 6.049999 -1.900001
v 1.000000 0.050000 -2.000000
v 1.000000 6.049999 -2.000001
v -1.000000 3.541233 0.049999
v -1.000000 6.041233 0.049999
v -1.000000 3.541233 -0.050001
v -1.000000 6.041233 -0.050001
v 1.000000 3.541233 0.049999
v 1.000000 6.041233 0.049999
v 1.000000 3.541233 -0.050001
v 1.000000 6.041233 -0.050001
v -1.000000 0.050000 0.050000
v -1.000000 1.950000 0.050000
v -1.000000 0.050000 -0.050000
v -1.000000 1.950000 -0.050000
v 1.000000 0.050000 0.050000
v 1.000000 1.950000 0.050000
v 1.000000 0.050000 -0.050000
v 1.000000 1.950000 -0.050000
v -1.000000 2.049786 -0.477838
v -1.000000 3.436786 -0.477839
v -1.000000 2.049786 -0.577838
v -1.000000 3.436786 -0.577839
v 1.000000 2.049786 -0.477838
v 1.000000 3.436786 -0.477839
v 1.000000 2.049786 -0.577838
v 1.000000 3.436786 -0.577839
v -1.000000 4.297041 1.899999
v -1.000000 4.397041 1.899999
v 1.000000 4.297041 1.899999
v 1.000000 4.397041 1.899999
v -1.000000 4.297041 0.050934
v -1.000000 4.397041 0.050934
v 1.000000 4.297041 0.050934
v 1.000000 4.397041 0.050934
v -1.000000 6.050581 1.999999
v -1.000000 6.150581 1.999999
v -1.000000 6.050580 -2.000001
v -1.000000 6.150580 -2.000001
v 1.000000 6.050581 1.999999
v 1.000000 6.150581 1.999999
v 1.000000 6.050580 -2.000001
v 1.000000 6.150580 -2.000001
v -1.000000 4.740474 -0.050289
v -1.000000 4.840474 -0.050289
v 1.000000 4.740474 -0.050289
v 1.000000 4.840474 -0.050289
v -1.000000 4.740474 -1.902075
v -1.000000 4.840474 -1.902075
v 1.000000 4.740474 -1.902075
v 1.000000 4.840474 -1.902075
vt 0.375000 0.000000
vt 0.625000 0.000000
vt 0.625000 0.250000
vt 0.375000 0.250000
vt 0.625000 0.500000
vt 0.375000 0.500000
vt 0.625000 0.750000
vt 0.375000 0.750000
vt 0.625000 1.000000
vt 0.375000 1.000000
vt 0.125000 0.500000
vt 0.125000 0.750000
vt 0.875000 0.500000
vt 0.875000 0.750000
vt 0.375000 0.000000
vt 0.625000 0.000000
vt 0.625000 0.250000
vt 0.375000 0.250000
vt 0.625000 0.500000
vt 0.375000 0.500000
vt 0.625000 0.750000
vt 0.375000 0.750000
vt 0.625000 1.000000
vt 0.375000 1.000000
vt 0.125000 0.500000
vt 0.125000 0.750000
vt 0.875000 0.500000
vt 0.875000 0.750000
vt 0.375000 0.000000
vt 0.625000 0.000000
vt 0.625000 0.250000
vt 0.375000 0.250000
vt 0.625000 0.500000
vt 0.375000 0.500000
vt 0.625000 0.750000
vt 0.375000 0.750000
vt 0.625000 1.000000
vt 0.375000 1.000000
vt 0.125000 0.500000
vt 0.125000 0.750000
vt 0.875000 0.500000
vt 0.875000 0.750000
vt 0.375000 0.000000
vt 0.625000 0.000000
vt 0.625000 0.250000
vt 0.375000 0.250000
vt 0.625000 0.500000
vt 0.375000 0.500000
vt 0.625000 0.750000
vt 0.375000 0.750000
vt 0.625000 1.000000
vt 0.375000 1.000000
vt 0.125000 0.500000
vt 0.125000 0.750000
vt 0.875000 0.500000
vt 0.875000 0.750000
vt 0.375000 0.000000
vt 0.625000 0.000000
vt 0.625000 0.250000
vt 0.375000 0.250000
vt 0.625000 0.500000
vt 0.375000 0.500000
vt 0.625000 0.750000
vt 0.375000 0.750000
vt 0.625000 1.000000
vt 0.375000 1.000000
vt 0.125000 0.500000
vt 0.125000 0.750000
vt 0.875000 0.500000
vt 0.875000 0.750000
vt 0.375000 0.000000
vt 0.625000 0.000000
vt 0.625000 0.250000
vt 0.375000 0.250000
vt 0.625000 0.500000
vt 0.375000 0.500000
vt 0.625000 0.750000
vt 0.375000 0.750000
vt 0.625000 1.000000
vt 0.375000 1.000000
vt 0.125000 0.500000
vt 0.125000 0.750000
vt 0.875000 0.500000
vt 0.875000 0.750000
vt 0.375000 0.000000
vt 0.625000 0.000000
vt 0.625000 0.250000
vt 0.375000 0.250000
vt 0.625000 0.500000
vt 0.375000 0.500000
vt 0.625000 0.750000
vt 0.375000 0.750000
vt 0.625000 1.000000
vt 0.375000 1.000000
vt 0.125000 0.500000
vt 0.125000 0.750000
vt 0.875000 0.500000
vt 0.875000 0.750000
vt 0.375000 0.000000
vt 0.625000 0.000000
vt 0.625000 0.250000
vt 0.375000 0.250000
vt 0.625000 0.500000
vt 0.375000 0.500000
vt 0.625000 0.750000
vt 0.375000 0.750000
vt 0.625000 1.000000
vt 0.375000 1.000000
vt 0.125000 0.500000
vt 0.125000 0.750000
vt 0.875000 0.500000
vt 0.875000 0.750000
vt 0.375000 0.628351
vt 0.625000 0.628351
vt 0.625000 0.750000
vt 0.375000 0.750000
vt 0.625000 1.000000
vt 0.375000 1.000000
vt 0.125000 0.628351
vt 0.125000 0.750000
vt 0.875000 0.628351
vt 0.875000 0.750000
vt 0.375000 0.000000
vt 0.625000 0.000000
vt 0.625000 0.121649
vt 0.375000 0.121649
vt 0.375000 0.000000
vt 0.625000 0.000000
vt 0.625000 0.250000
vt 0.375000 0.250000
vt 0.625000 0.500000
vt 0.375000 0.500000
vt 0.625000 0.750000
vt 0.375000 0.750000
vt 0.625000 1.000000
vt 0.375000 1.000000
vt 0.125000 0.500000
vt 0.125000 0.750000
vt 0.875000 0.500000
vt 0.875000 0.750000
vt 0.375000 0.628351
vt 0.625000 0.628351
vt 0.625000 0.750000
vt 0.375000 0.750000
vt 0.625000 1.000000
vt 0.375000 1.000000
vt 0.125000 0.628351
vt 0.125000 0.750000
vt 0.875000 0.628351
vt 0.875000 0.750000
vt 0.375000 0.000000
vt 0.625000 0.000000
vt 0.625000 0.121649
vt 0.375000 0.121649
vn -1.0000 0.0000 0.0000
vn 0.0000 0.0000 -1.0000
vn 1.0000 0.0000 0.0000
vn 0.0000 0.0000 1.0000
vn 0.0000 -1.0000 0.0000
vn 0.0000 1.0000 -0.0000
usemtl Material.005
s 1
f 1/1/1 2/2/1 4/3/1 3/4/1
f 3/4/2 4/3/2 8/5/2 7/6/2
f 7/6/3 8/5/3 6/7/3 5/8/3
f 5/8/4 6/7/4 2/9/4 1/10/4
f 3/11/5 7/6/5 5/8/5 1/12/5
f 8/5/6 4/13/6 2/14/6 6/7/6
f 9/15/1 10/16/1 12/17/1 11/18/1
f 11/18/2 12/17/2 16/19/2 15/20/2
f 15/20/3 16/19/3 14/21/3 13/22/3
f 13/22/4 14/21/4 10/23/4 9/24/4
f 11/25/5 15/20/5 13/22/5 9/26/5
f 16/19/6 12/27/6 10/28/6 14/21/6
f 17/29/1 18/30/1 20/31/1 19/32/1
f 19/32/2 20/31/2 24/33/2 23/34/2
f 23/34/3 24/33/3 22/35/3 21/36/3
f 21/36/4 22/35/4 18/37/4 17/38/4
f 19/39/5 23/34/5 21/36/5 17/40/5
f 24/33/6 20/41/6 18/42/6 22/35/6
f 25/43/1 26/44/1 28/45/1 27/46/1
f 27/46/2 28/45/2 32/47/2 31/48/2
f 31/48/3 32/47/3 30/49/3 29/50/3
f 29/50/4 30/49/4 26/51/4 25/52/4
f 27/53/5 31/48/5 29/50/5 25/54/5
f 32/47/6 28/55/6 26/56/6 30/49/6
f 33/57/1 34/58/1 36/59/1 35/60/1
f 35/60/2 36/59/2 40/61/2 39/62/2
f 39/62/3 40/61/3 38/63/3 37/64/3
f 37/64/4 38/63/4 34/65/4 33/66/4
f 35/67/5 39/62/5 37/64/5 33/68/5
f 40/61/6 36/69/6 34/70/6 38/63/6
f 41/71/1 42/72/1 44/73/1 43/74/1
f 43/74/2 44/73/2 48/75/2 47/76/2
f 47/76/3 48/75/3 46/77/3 45/78/3
f 45/78/4 46/77/4 42/79/4 41/80/4
f 43/81/5 47/76/5 45/78/5 41/82/5
f 48/75/6 44/83/6 42/84/6 46/77/6
f 49/85/1 50/86/1 52/87/1 51/88/1
f 51/88/2 52/87/2 56/89/2 55/90/2
f 55/90/3 56/89/3 54/91/3 53/92/3
f 53/92/4 54/91/4 50/93/4 49/94/4
f 51/95/5 55/90/5 53/92/5 49/96/5
f 56/89/6 52/97/6 50/98/6 54/91/6
f 57/99/1 58/100/1 60/101/1 59/102/1
f 59/102/2 60/101/2 64/103/2 63/104/2
f 63/104/3 64/103/3 62/105/3 61/106/3
f 61/106/4 62/105/4 58/107/4 57/108/4
f 59/109/5 63/104/5 61/106/5 57/110/5
f 64/103/6 60/111/6 58/112/6 62/105/6
f 71/113/3 72/114/3 68/115/3 67/116/3
f 67/116/4 68/115/4 66/117/4 65/118/4
f 69/119/5 71/113/5 67/116/5 65/120/5
f 72/114/6 70/121/6 66/122/6 68/115/6
f 65/123/1 66/124/1 70/125/1 69/126/1
f 73/127/1 74/128/1 76/129/1 75/130/1
f 75/130/2 76/129/2 80/131/2 79/132/2
f 79/132/3 80/131/3 78/133/3 77/134/3
f 77/134/4 78/133/4 74/135/4 73/136/4
f 75/137/5 79/132/5 77/134/5 73/138/5
f 80/131/6 76/139/6 74/140/6 78/133/6
f 87/141/3 88/142/3 84/143/3 83/144/3
f 83/144/4 84/143/4 82/145/4 81/146/4
f 85/147/5 87/141/5 83/144/5 81/148/5
f 88/142/6 86/149/6 82/150/6 84/143/6
f 81/151/1 82/152/1 86/153/1 85/154/1
o cupboard_Door.001_Würfel.017
v -0.930000 0.050921 1.904435
v -0.930000 1.930921 1.904434
v -0.930000 0.050921 0.084435
v -0.930000 1.930921 0.084434
v 0.930000 0.050921 1.904435
v 0.930000 1.930921 1.904434
v 0.930000 0.050921 0.084435
v 0.930000 1.930921 0.084434
vt 0.375000 0.000000
vt 0.625000 0.000000
vt 0.625000 0.250000
vt 0.375000 0.250000
vt 0.625000 0.500000
vt 0.375000 0.500000
vt 0.625000 0.750000
vt 0.375000 0.750000
vt 0.625000 1.000000
vt 0.375000 1.000000
vt 0.125000 0.500000
vt 0.125000 0.750000
vt 0.875000 0.500000
vt 0.875000 0.750000
vn -1.0000 -0.0000 0.0000
vn 0.0000 -0.0000 -1.0000
vn 1.0000 0.0000 0.0000
vn 0.0000 0.0000 1.0000
vn 0.0000 -1.0000 0.0000
vn 0.0000 1.0000 -0.0000
usemtl Material.006
s 1
f 89/155/7 90/156/7 92/157/7 91/158/7
f 91/158/8 92/157/8 96/159/8 95/160/8
f 95/160/9 96/159/9 94/161/9 93/162/9
f 93/162/10 94/161/10 90/163/10 89/164/10
f 91/165/11 95/160/11 93/162/11 89/166/11
f 96/159/12 92/167/12 90/168/12 94/161/12
o cupboard_Door_Würfel.018
v -0.930000 0.050921 -0.085327
v -0.930000 1.930921 -0.085327
v -0.930000 0.050921 -1.905327
v -0.930000 1.930921 -1.905327
v 0.930000 0.050921 -0.085327
v 0.930000 1.930921 -0.085327
v 0.930000 0.050921 -1.905327
v 0.930000 1.930921 -1.905327
vt 0.375000 0.000000
vt 0.625000 0.000000
vt 0.625000 0.250000
vt 0.375000 0.250000
vt 0.625000 0.500000
vt 0.375000 0.500000
vt 0.625000 0.750000
vt 0.375000 0.750000
vt 0.625000 1.000000
vt 0.375000 1.000000
vt 0.125000 0.500000
vt 0.125000 0.750000
vt 0.875000 0.500000
vt 0.875000 0.750000
vn -1.0000 -0.0000 0.0000
vn 0.0000 -0.0000 -1.0000
vn 1.0000 0.0000 0.0000
vn 0.0000 0.0000 1.0000
vn 0.0000 -1.0000 0.0000
vn 0.0000 1.0000 -0.0000
usemtl Material.006
s 1
f 97/169/13 98/170/13 100/171/13 99/172/13
f 99/172/14 100/171/14 104/173/14 103/174/14
f 103/174/15 104/173/15 102/175/15 101/176/15
f 101/176/16 102/175/16 98/177/16 97/178/16
f 99/179/17 103/174/17 101/176/17 97/180/17
f 104/173/18 100/181/18 98/182/18 102/175/18
