# WaveFront *.obj file (generated by Autodesk ATF)

mtllib empty_room.mtl

g Solid1

v -0.500000 -0.500000 0.000000
v -0.500000 -0.500000 6.000000
v -0.500000 20.500000 0.000000
v -0.500000 20.500000 6.000000
v 0.000000 0.000000 0.000000
v 0.000000 0.000000 6.000000
v 0.000000 20.000000 0.000000
v 0.000000 20.000000 6.000000
v 10.000000 0.000000 0.000000
v 10.000000 0.000000 6.000000
v 10.000000 20.000000 0.000000
v 10.000000 20.000000 6.000000
v 10.500000 -0.500000 0.000000
v 10.500000 -0.500000 6.000000
v 10.500000 20.500000 0.000000
v 10.500000 20.500000 6.000000
vt 0.000000 0.000000 0.000000
vt 25.400000 0.000000 0.000000
vt 25.400000 15.240000 0.000000
vt 0.000000 15.240000 0.000000
vt 0.000000 0.000000 0.000000
vt 50.799999 0.000000 0.000000
vt 50.799999 15.240000 0.000000
vt 0.000000 15.240000 0.000000
vt 0.000000 0.000000 0.000000
vt 25.400000 0.000000 0.000000
vt 25.400000 15.240000 0.000000
vt 0.000000 15.240000 0.000000
vt 0.000000 0.000000 0.000000
vt 50.799999 0.000000 0.000000
vt 50.799999 15.240000 0.000000
vt 0.000000 15.240000 0.000000
vt 0.000000 0.000000 0.000000
vt 27.940001 0.000000 0.000000
vt 27.940001 15.240000 0.000000
vt 0.000000 15.240000 0.000000
vt 0.000000 0.000000 0.000000
vt 53.340000 0.000000 0.000000
vt 53.340000 15.240000 0.000000
vt 0.000000 15.240000 0.000000
vt 0.000000 0.000000 0.000000
vt 27.940001 0.000000 0.000000
vt 27.940001 15.240000 0.000000
vt 0.000000 15.240000 0.000000
vt 0.000000 0.000000 0.000000
vt 53.340000 0.000000 0.000000
vt 53.340000 15.240000 0.000000
vt 0.000000 15.240000 0.000000
vt 13.970000 -26.670000 0.000000
vt 13.970000 26.670000 0.000000
vt -13.970000 26.670000 0.000000
vt -13.970000 -26.670000 0.000000
vt -12.700000 -25.400000 0.000000
vt -12.700000 25.400000 0.000000
vt 12.700000 25.400000 0.000000
vt 12.700000 -25.400000 0.000000
vt -13.970000 26.670000 0.000000
vt -13.970000 -26.670000 0.000000
vt 13.970000 -26.670000 0.000000
vt 13.970000 26.670000 0.000000
vt 12.700000 25.400000 0.000000
vt 12.700000 -25.400000 0.000000
vt -12.700000 -25.400000 0.000000
vt -12.700000 25.400000 0.000000
vn 0.000000 2.540000 0.000000
vn 0.000000 2.540000 0.000000
vn 0.000000 2.540000 0.000000
vn 0.000000 2.540000 0.000000
vn -2.540000 0.000000 0.000000
vn -2.540000 0.000000 0.000000
vn -2.540000 0.000000 0.000000
vn -2.540000 0.000000 0.000000
vn 0.000000 -2.540000 0.000000
vn 0.000000 -2.540000 0.000000
vn 0.000000 -2.540000 0.000000
vn 0.000000 -2.540000 0.000000
vn 2.540000 0.000000 0.000000
vn 2.540000 0.000000 0.000000
vn 2.540000 0.000000 0.000000
vn 2.540000 0.000000 0.000000
vn 0.000000 -2.540000 0.000000
vn 0.000000 -2.540000 0.000000
vn 0.000000 -2.540000 0.000000
vn 0.000000 -2.540000 0.000000
vn -2.540000 0.000000 0.000000
vn -2.540000 0.000000 0.000000
vn -2.540000 0.000000 0.000000
vn -2.540000 0.000000 0.000000
vn 0.000000 2.540000 0.000000
vn 0.000000 2.540000 0.000000
vn 0.000000 2.540000 0.000000
vn 0.000000 2.540000 0.000000
vn 2.540000 0.000000 0.000000
vn 2.540000 0.000000 0.000000
vn 2.540000 0.000000 0.000000
vn 2.540000 0.000000 0.000000
vn 0.000000 0.000000 2.540000
vn 0.000000 0.000000 2.540000
vn 0.000000 0.000000 2.540000
vn 0.000000 0.000000 2.540000
vn 0.000000 0.000000 2.540000
vn 0.000000 0.000000 2.540000
vn 0.000000 0.000000 2.540000
vn 0.000000 0.000000 2.540000
vn 0.000000 0.000000 -2.540000
vn 0.000000 0.000000 -2.540000
vn 0.000000 0.000000 -2.540000
vn 0.000000 0.000000 -2.540000
vn 0.000000 0.000000 -2.540000
vn 0.000000 0.000000 -2.540000
vn 0.000000 0.000000 -2.540000
vn 0.000000 0.000000 -2.540000
usemtl 191,191,191
f 9/1/1 5/2/2 10/4/4
f 10/4/4 5/2/2 6/3/3
f 11/5/5 9/6/6 12/8/8
f 12/8/8 9/6/6 10/7/7
f 7/9/9 11/10/10 8/12/12
f 8/12/12 11/10/10 12/11/11
f 5/13/13 7/14/14 6/16/16
f 6/16/16 7/14/14 8/15/15
f 1/17/17 13/18/18 2/20/20
f 2/20/20 13/18/18 14/19/19
f 3/21/21 1/22/22 4/24/24
f 4/24/24 1/22/22 2/23/23
f 15/25/25 3/26/26 16/28/28
f 16/28/28 3/26/26 4/27/27
f 13/29/29 15/30/30 14/32/32
f 14/32/32 15/30/30 16/31/31
f 16/34/34 12/39/39 14/33/33
f 14/33/33 12/39/39 10/40/40
f 14/33/33 10/40/40 6/37/37
f 16/34/34 4/35/35 12/39/39
f 12/39/39 4/35/35 8/38/38
f 8/38/38 4/35/35 2/36/36
f 8/38/38 2/36/36 6/37/37
f 6/37/37 2/36/36 14/33/33
f 13/42/42 11/48/48 15/41/41
f 15/41/41 11/48/48 7/45/45
f 15/41/41 7/45/45 3/44/44
f 3/44/44 7/45/45 1/43/43
f 1/43/43 7/45/45 5/46/46
f 1/43/43 5/46/46 9/47/47
f 11/48/48 13/42/42 9/47/47
f 9/47/47 13/42/42 1/43/43

# 16 vertices
# 48 texture params
# 48 normals
# 32 facets

# 1 groups
