# WaveFront *.obj file (generated by Autodesk ATF)

mtllib long_room_half_wall.mtl

g Solid1

v -12.200000 0.000000 -2.200000
v -12.200000 0.000000 0.200000
v -12.200000 1.000000 -2.200000
v -12.200000 1.000000 0.200000
v -12.000000 0.000000 -2.000000
v -12.000000 0.000000 0.000000
v -12.000000 1.000000 -2.000000
v -12.000000 1.000000 0.000000
v -6.844268 0.000000 -2.000000
v -6.844268 0.000000 -1.000000
v -6.844268 1.000000 -2.000000
v -6.844268 1.000000 -1.000000
v -6.744268 0.000000 -2.000000
v -6.744268 0.000000 -1.000000
v -6.744268 1.000000 -2.000000
v -6.744268 1.000000 -1.000000
v -1.000000 0.000000 -2.000000
v -1.000000 0.000000 0.000000
v -1.000000 0.100000 -2.000000
v -1.000000 0.100000 0.000000
v 0.000000 0.100000 -2.000000
v 0.000000 0.100000 0.000000
v 0.000000 1.000000 -2.000000
v 0.000000 1.000000 0.000000
v 0.200000 0.000000 -2.200000
v 0.200000 0.000000 0.200000
v 0.200000 1.000000 -2.200000
v 0.200000 1.000000 0.200000
vt -3.048000 15.748000 0.000000
vt -3.048000 -15.748000 0.000000
vt 3.048000 -15.748000 0.000000
vt 3.048000 15.748000 0.000000
vt 2.540000 15.240000 0.000000
vt 2.540000 -15.240000 0.000000
vt -2.540000 -15.240000 0.000000
vt -2.540000 -2.144441 0.000000
vt 0.000000 -2.144441 0.000000
vt 0.000000 -1.890441 0.000000
vt -2.540000 -1.890441 0.000000
vt -2.540000 15.240000 0.000000
vt 3.048000 -15.748000 0.000000
vt 3.048000 15.748000 0.000000
vt -3.048000 15.748000 0.000000
vt -3.048000 -15.748000 0.000000
vt -2.540000 12.700000 0.000000
vt 2.540000 12.700000 0.000000
vt 2.540000 -1.890441 0.000000
vt -0.000000 -1.890441 0.000000
vt -0.000000 -2.144441 0.000000
vt 2.540000 -2.144441 0.000000
vt 2.540000 -15.240000 0.000000
vt -2.540000 -15.240000 0.000000
vt 0.000000 0.000000 0.000000
vt 5.080000 0.000000 0.000000
vt 5.080000 2.540000 0.000000
vt 0.000000 2.540000 0.000000
vt 2.540000 0.254000 0.000000
vt 2.540000 0.000000 0.000000
vt 30.480000 0.000000 0.000000
vt 30.480000 2.540000 0.000000
vt 0.000000 2.540000 0.000000
vt 0.000000 0.254000 0.000000
vt 0.000000 0.000000 0.000000
vt 6.096000 0.000000 0.000000
vt 6.096000 2.540000 0.000000
vt 0.000000 2.540000 0.000000
vt 0.000000 0.000000 0.000000
vt 31.496000 0.000000 0.000000
vt 31.496000 2.540000 0.000000
vt 0.000000 2.540000 0.000000
vt 0.000000 0.000000 0.000000
vt 6.096000 0.000000 0.000000
vt 6.096000 2.540000 0.000000
vt 0.000000 2.540000 0.000000
vt 0.000000 0.000000 0.000000
vt 31.496000 0.000000 0.000000
vt 31.496000 2.540000 0.000000
vt 0.000000 2.540000 0.000000
vt 13.095559 0.000000 0.000000
vt 13.095559 2.540000 0.000000
vt 0.000000 2.540000 0.000000
vt 0.000000 0.000000 0.000000
vt 0.000000 0.254000 0.000000
vt 5.080000 0.254000 0.000000
vt 5.080000 2.540000 0.000000
vt 0.000000 2.540000 0.000000
vt 0.000000 0.000000 0.000000
vt 5.080000 0.000000 0.000000
vt 5.080000 2.540000 0.000000
vt 0.000000 2.540000 0.000000
vt 2.540000 -0.127000 0.000000
vt 2.540000 0.127000 0.000000
vt -2.540000 0.127000 0.000000
vt -2.540000 -0.127000 0.000000
vt 0.000000 0.000000 0.000000
vt 2.540000 0.000000 0.000000
vt 2.540000 2.540000 0.000000
vt 0.000000 2.540000 0.000000
vt 0.000000 0.000000 0.000000
vt 2.540000 0.000000 0.000000
vt 2.540000 2.540000 0.000000
vt 0.000000 2.540000 0.000000
vt -0.127000 -1.270000 0.000000
vt 0.127000 -1.270000 0.000000
vt 0.127000 1.270000 0.000000
vt -0.127000 1.270000 0.000000
vt 13.349559 2.540000 0.000000
vt 13.349559 0.000000 0.000000
vt 27.940001 0.000000 0.000000
vt 27.940001 0.254000 0.000000
vt 30.480000 0.254000 0.000000
vt 30.480000 2.540000 0.000000
vn 0.000000 2.540000 0.000000
vn 0.000000 2.540000 0.000000
vn 0.000000 2.540000 0.000000
vn 0.000000 2.540000 0.000000
vn 0.000000 2.540000 0.000000
vn 0.000000 2.540000 0.000000
vn 0.000000 2.540000 0.000000
vn 0.000000 2.540000 0.000000
vn 0.000000 2.540000 0.000000
vn 0.000000 2.540000 0.000000
vn 0.000000 2.540000 0.000000
vn 0.000000 2.540000 0.000000
vn 0.000000 -2.540000 0.000000
vn 0.000000 -2.540000 0.000000
vn 0.000000 -2.540000 0.000000
vn 0.000000 -2.540000 0.000000
vn 0.000000 -2.540000 0.000000
vn 0.000000 -2.540000 0.000000
vn 0.000000 -2.540000 0.000000
vn 0.000000 -2.540000 0.000000
vn 0.000000 -2.540000 0.000000
vn 0.000000 -2.540000 0.000000
vn 0.000000 -2.540000 0.000000
vn 0.000000 -2.540000 0.000000
vn 2.540000 0.000000 0.000000
vn 2.540000 0.000000 0.000000
vn 2.540000 0.000000 0.000000
vn 2.540000 0.000000 0.000000
vn 0.000000 0.000000 -2.540000
vn 0.000000 0.000000 -2.540000
vn 0.000000 0.000000 -2.540000
vn 0.000000 0.000000 -2.540000
vn 0.000000 0.000000 -2.540000
vn 0.000000 0.000000 -2.540000
vn 2.540000 0.000000 0.000000
vn 2.540000 0.000000 0.000000
vn 2.540000 0.000000 0.000000
vn 2.540000 0.000000 0.000000
vn 0.000000 0.000000 2.540000
vn 0.000000 0.000000 2.540000
vn 0.000000 0.000000 2.540000
vn 0.000000 0.000000 2.540000
vn -2.540000 0.000000 0.000000
vn -2.540000 0.000000 0.000000
vn -2.540000 0.000000 0.000000
vn -2.540000 0.000000 0.000000
vn 0.000000 0.000000 -2.540000
vn 0.000000 0.000000 -2.540000
vn 0.000000 0.000000 -2.540000
vn 0.000000 0.000000 -2.540000
vn 0.000000 0.000000 2.540000
vn 0.000000 0.000000 2.540000
vn 0.000000 0.000000 2.540000
vn 0.000000 0.000000 2.540000
vn -2.540000 0.000000 0.000000
vn -2.540000 0.000000 0.000000
vn -2.540000 0.000000 0.000000
vn -2.540000 0.000000 0.000000
vn 0.000000 2.540000 0.000000
vn 0.000000 2.540000 0.000000
vn 0.000000 2.540000 0.000000
vn 0.000000 2.540000 0.000000
vn -2.540000 0.000000 0.000000
vn -2.540000 0.000000 0.000000
vn -2.540000 0.000000 0.000000
vn -2.540000 0.000000 0.000000
vn -2.540000 0.000000 0.000000
vn -2.540000 0.000000 0.000000
vn -2.540000 0.000000 0.000000
vn -2.540000 0.000000 0.000000
vn 2.540000 0.000000 0.000000
vn 2.540000 0.000000 0.000000
vn 2.540000 0.000000 0.000000
vn 2.540000 0.000000 0.000000
vn 0.000000 0.000000 2.540000
vn 0.000000 0.000000 2.540000
vn 0.000000 0.000000 2.540000
vn 0.000000 0.000000 2.540000
vn 0.000000 0.000000 2.540000
vn 0.000000 0.000000 2.540000
vn 0.000000 0.000000 2.540000
vn 0.000000 0.000000 2.540000
vn 0.000000 0.000000 2.540000
vn 0.000000 0.000000 2.540000
usemtl 191,191,191
f 3/2/2 15/11/11 27/1/1
f 27/1/1 15/11/11 23/12/12
f 27/1/1 23/12/12 24/5/5
f 4/3/3 7/7/7 3/2/2
f 3/2/2 7/7/7 11/8/8
f 3/2/2 11/8/8 15/11/11
f 15/11/11 11/8/8 12/9/9
f 15/11/11 12/9/9 16/10/10
f 28/4/4 24/5/5 4/3/3
f 4/3/3 24/5/5 8/6/6
f 4/3/3 8/6/6 7/7/7
f 28/4/4 27/1/1 24/5/5
f 25/14/14 13/19/19 1/13/13
f 1/13/13 13/19/19 9/22/22
f 1/13/13 9/22/22 5/23/23
f 13/19/19 25/14/14 17/18/18
f 17/18/18 25/14/14 26/15/15
f 17/18/18 26/15/15 18/17/17
f 18/17/17 26/15/15 2/16/16
f 18/17/17 2/16/16 6/24/24
f 6/24/24 2/16/16 1/13/13
f 6/24/24 1/13/13 5/23/23
f 13/19/19 14/20/20 9/22/22
f 9/22/22 14/20/20 10/21/21
f 6/25/25 5/26/26 8/28/28
f 8/28/28 5/26/26 7/27/27
f 18/30/30 6/31/31 20/29/29
f 20/29/29 6/31/31 8/32/32
f 20/29/29 8/32/32 24/33/33
f 24/33/33 22/34/34 20/29/29
f 26/35/35 25/36/36 28/38/38
f 28/38/38 25/36/36 27/37/37
f 2/39/39 26/40/40 4/42/42
f 4/42/42 26/40/40 28/41/41
f 1/43/43 2/44/44 3/46/46
f 3/46/46 2/44/44 4/45/45
f 25/47/47 1/48/48 27/50/50
f 27/50/50 1/48/48 3/49/49
f 11/52/52 7/53/53 9/51/51
f 9/51/51 7/53/53 5/54/54
f 21/55/55 22/56/56 23/58/58
f 23/58/58 22/56/56 24/57/57
f 22/59/59 21/60/60 20/62/62
f 20/62/62 21/60/60 19/61/61
f 20/64/64 19/65/65 18/63/63
f 18/63/63 19/65/65 17/66/66
f 11/67/67 9/68/68 12/70/70
f 12/70/70 9/68/68 10/69/69
f 13/71/71 15/72/72 14/74/74
f 14/74/74 15/72/72 16/73/73
f 10/75/75 14/76/76 12/78/78
f 12/78/78 14/76/76 16/77/77
f 23/84/84 15/79/79 19/82/82
f 19/82/82 15/79/79 13/80/80
f 19/82/82 13/80/80 17/81/81
f 19/82/82 21/83/83 23/84/84

# 28 vertices
# 84 texture params
# 84 normals
# 56 facets

# 1 groups
