# WaveFront *.obj file (generated by Autodesk ATF)

mtllib long_room_2_half_wall.mtl

g Solid1

v -12.200000 0.000000 -2.200000
v -12.200000 0.000000 0.200000
v -12.200000 1.000000 -2.200000
v -12.200000 1.000000 0.200000
v -12.000000 0.000000 -2.000000
v -12.000000 0.000000 0.000000
v -12.000000 1.000000 -2.000000
v -12.000000 1.000000 0.000000
v -6.844268 0.000000 -2.000000
v -6.844268 0.000000 -1.000000
v -6.844268 1.000000 -2.000000
v -6.844268 1.000000 -1.000000
v -6.744268 0.000000 -2.000000
v -6.744268 0.000000 -1.000000
v -6.744268 1.000000 -2.000000
v -6.744268 1.000000 -1.000000
v -3.540558 0.000000 -1.000000
v -3.540558 0.000000 0.000000
v -3.540558 1.000000 -1.000000
v -3.540558 1.000000 0.000000
v -3.440558 0.000000 -1.000000
v -3.440558 0.000000 0.000000
v -3.440558 1.000000 -1.000000
v -3.440558 1.000000 0.000000
v -1.000000 0.000000 -2.000000
v -1.000000 0.000000 0.000000
v -1.000000 0.100000 -2.000000
v -1.000000 0.100000 0.000000
v 0.000000 0.100000 -2.000000
v 0.000000 0.100000 0.000000
v 0.000000 1.000000 -2.000000
v 0.000000 1.000000 0.000000
v 0.200000 0.000000 -2.200000
v 0.200000 0.000000 0.200000
v 0.200000 1.000000 -2.200000
v 0.200000 1.000000 0.200000
vt 3.048000 -15.748000 0.000000
vt 3.048000 15.748000 0.000000
vt -3.048000 15.748000 0.000000
vt -3.048000 -15.748000 0.000000
vt -2.540000 12.700000 0.000000
vt 2.540000 12.700000 0.000000
vt 2.540000 -1.890441 0.000000
vt -0.000000 -1.890441 0.000000
vt -0.000000 -2.144441 0.000000
vt 2.540000 -2.144441 0.000000
vt 2.540000 -15.240000 0.000000
vt -2.540000 -15.240000 0.000000
vt -2.540000 6.246984 0.000000
vt -0.000000 6.246984 0.000000
vt -0.000000 6.500984 0.000000
vt -2.540000 6.500984 0.000000
vt -3.048000 15.748000 0.000000
vt -3.048000 -15.748000 0.000000
vt 3.048000 -15.748000 0.000000
vt 3.048000 15.748000 0.000000
vt 2.540000 15.240000 0.000000
vt 2.540000 6.500984 0.000000
vt 0.000000 6.500984 0.000000
vt 0.000000 6.246984 0.000000
vt 2.540000 6.246984 0.000000
vt 2.540000 -15.240000 0.000000
vt -2.540000 -15.240000 0.000000
vt -2.540000 -2.144441 0.000000
vt 0.000000 -2.144441 0.000000
vt 0.000000 -1.890441 0.000000
vt -2.540000 -1.890441 0.000000
vt -2.540000 15.240000 0.000000
vt 0.000000 0.000000 0.000000
vt 5.080000 0.000000 0.000000
vt 5.080000 2.540000 0.000000
vt 0.000000 2.540000 0.000000
vt 8.739017 0.000000 0.000000
vt 8.739017 2.540000 0.000000
vt 0.000000 2.540000 0.000000
vt 0.000000 0.254000 0.000000
vt 2.540000 0.254000 0.000000
vt 2.540000 0.000000 0.000000
vt 0.000000 0.000000 0.000000
vt 6.096000 0.000000 0.000000
vt 6.096000 2.540000 0.000000
vt 0.000000 2.540000 0.000000
vt 0.000000 0.000000 0.000000
vt 31.496000 0.000000 0.000000
vt 31.496000 2.540000 0.000000
vt 0.000000 2.540000 0.000000
vt 0.000000 0.000000 0.000000
vt 6.096000 0.000000 0.000000
vt 6.096000 2.540000 0.000000
vt 0.000000 2.540000 0.000000
vt 0.000000 0.000000 0.000000
vt 31.496000 0.000000 0.000000
vt 31.496000 2.540000 0.000000
vt 0.000000 2.540000 0.000000
vt 13.095559 0.000000 0.000000
vt 13.095559 2.540000 0.000000
vt 0.000000 2.540000 0.000000
vt 0.000000 0.000000 0.000000
vt 0.000000 0.254000 0.000000
vt 5.080000 0.254000 0.000000
vt 5.080000 2.540000 0.000000
vt 0.000000 2.540000 0.000000
vt 0.000000 0.000000 0.000000
vt 5.080000 0.000000 0.000000
vt 5.080000 2.540000 0.000000
vt 0.000000 2.540000 0.000000
vt 2.540000 -0.127000 0.000000
vt 2.540000 0.127000 0.000000
vt -2.540000 0.127000 0.000000
vt -2.540000 -0.127000 0.000000
vt 0.000000 0.000000 0.000000
vt 2.540000 0.000000 0.000000
vt 2.540000 2.540000 0.000000
vt 0.000000 2.540000 0.000000
vt 0.000000 0.000000 0.000000
vt 2.540000 0.000000 0.000000
vt 2.540000 2.540000 0.000000
vt 0.000000 2.540000 0.000000
vt -0.127000 -1.270000 0.000000
vt 0.127000 -1.270000 0.000000
vt 0.127000 1.270000 0.000000
vt -0.127000 1.270000 0.000000
vt 13.349559 2.540000 0.000000
vt 13.349559 0.000000 0.000000
vt 27.940001 0.000000 0.000000
vt 27.940001 0.254000 0.000000
vt 30.480000 0.254000 0.000000
vt 30.480000 2.540000 0.000000
vt 0.000000 0.000000 0.000000
vt 2.540000 0.000000 0.000000
vt 2.540000 2.540000 0.000000
vt 0.000000 2.540000 0.000000
vt 0.000000 0.000000 0.000000
vt 2.540000 0.000000 0.000000
vt 2.540000 2.540000 0.000000
vt 0.000000 2.540000 0.000000
vt -0.127000 -1.270000 0.000000
vt 0.127000 -1.270000 0.000000
vt 0.127000 1.270000 0.000000
vt -0.127000 1.270000 0.000000
vt 8.993016 2.540000 0.000000
vt 8.993016 0.000000 0.000000
vt 30.480000 0.000000 0.000000
vt 30.480000 2.540000 0.000000
vn 0.000000 -2.540000 0.000000
vn 0.000000 -2.540000 0.000000
vn 0.000000 -2.540000 0.000000
vn 0.000000 -2.540000 0.000000
vn 0.000000 -2.540000 0.000000
vn 0.000000 -2.540000 0.000000
vn 0.000000 -2.540000 0.000000
vn 0.000000 -2.540000 0.000000
vn 0.000000 -2.540000 0.000000
vn 0.000000 -2.540000 0.000000
vn 0.000000 -2.540000 0.000000
vn 0.000000 -2.540000 0.000000
vn 0.000000 -2.540000 0.000000
vn 0.000000 -2.540000 0.000000
vn 0.000000 -2.540000 0.000000
vn 0.000000 -2.540000 0.000000
vn 0.000000 2.540000 0.000000
vn 0.000000 2.540000 0.000000
vn 0.000000 2.540000 0.000000
vn 0.000000 2.540000 0.000000
vn 0.000000 2.540000 0.000000
vn 0.000000 2.540000 0.000000
vn 0.000000 2.540000 0.000000
vn 0.000000 2.540000 0.000000
vn 0.000000 2.540000 0.000000
vn 0.000000 2.540000 0.000000
vn 0.000000 2.540000 0.000000
vn 0.000000 2.540000 0.000000
vn 0.000000 2.540000 0.000000
vn 0.000000 2.540000 0.000000
vn 0.000000 2.540000 0.000000
vn 0.000000 2.540000 0.000000
vn 2.540000 0.000000 0.000000
vn 2.540000 0.000000 0.000000
vn 2.540000 0.000000 0.000000
vn 2.540000 0.000000 0.000000
vn 0.000000 0.000000 -2.540000
vn 0.000000 0.000000 -2.540000
vn 0.000000 0.000000 -2.540000
vn 0.000000 0.000000 -2.540000
vn 0.000000 0.000000 -2.540000
vn 0.000000 0.000000 -2.540000
vn 2.540000 0.000000 0.000000
vn 2.540000 0.000000 0.000000
vn 2.540000 0.000000 0.000000
vn 2.540000 0.000000 0.000000
vn 0.000000 0.000000 2.540000
vn 0.000000 0.000000 2.540000
vn 0.000000 0.000000 2.540000
vn 0.000000 0.000000 2.540000
vn -2.540000 0.000000 0.000000
vn -2.540000 0.000000 0.000000
vn -2.540000 0.000000 0.000000
vn -2.540000 0.000000 0.000000
vn 0.000000 0.000000 -2.540000
vn 0.000000 0.000000 -2.540000
vn 0.000000 0.000000 -2.540000
vn 0.000000 0.000000 -2.540000
vn 0.000000 0.000000 2.540000
vn 0.000000 0.000000 2.540000
vn 0.000000 0.000000 2.540000
vn 0.000000 0.000000 2.540000
vn -2.540000 0.000000 0.000000
vn -2.540000 0.000000 0.000000
vn -2.540000 0.000000 0.000000
vn -2.540000 0.000000 0.000000
vn 0.000000 2.540000 0.000000
vn 0.000000 2.540000 0.000000
vn 0.000000 2.540000 0.000000
vn 0.000000 2.540000 0.000000
vn -2.540000 0.000000 0.000000
vn -2.540000 0.000000 0.000000
vn -2.540000 0.000000 0.000000
vn -2.540000 0.000000 0.000000
vn -2.540000 0.000000 0.000000
vn -2.540000 0.000000 0.000000
vn -2.540000 0.000000 0.000000
vn -2.540000 0.000000 0.000000
vn 2.540000 0.000000 0.000000
vn 2.540000 0.000000 0.000000
vn 2.540000 0.000000 0.000000
vn 2.540000 0.000000 0.000000
vn 0.000000 0.000000 2.540000
vn 0.000000 0.000000 2.540000
vn 0.000000 0.000000 2.540000
vn 0.000000 0.000000 2.540000
vn 0.000000 0.000000 2.540000
vn 0.000000 0.000000 2.540000
vn 0.000000 0.000000 2.540000
vn 0.000000 0.000000 2.540000
vn 0.000000 0.000000 2.540000
vn 0.000000 0.000000 2.540000
vn 2.540000 0.000000 0.000000
vn 2.540000 0.000000 0.000000
vn 2.540000 0.000000 0.000000
vn 2.540000 0.000000 0.000000
vn -2.540000 0.000000 0.000000
vn -2.540000 0.000000 0.000000
vn -2.540000 0.000000 0.000000
vn -2.540000 0.000000 0.000000
vn 0.000000 0.000000 -2.540000
vn 0.000000 0.000000 -2.540000
vn 0.000000 0.000000 -2.540000
vn 0.000000 0.000000 -2.540000
vn 0.000000 0.000000 -2.540000
vn 0.000000 0.000000 -2.540000
vn 0.000000 0.000000 -2.540000
vn 0.000000 0.000000 -2.540000
usemtl 191,191,191
f 33/2/2 13/7/7 1/1/1
f 1/1/1 13/7/7 9/10/10
f 1/1/1 9/10/10 5/11/11
f 13/7/7 33/2/2 25/6/6
f 25/6/6 33/2/2 34/3/3
f 25/6/6 34/3/3 26/5/5
f 26/5/5 34/3/3 22/16/16
f 22/16/16 34/3/3 18/13/13
f 22/16/16 18/13/13 17/14/14
f 34/3/3 2/4/4 18/13/13
f 18/13/13 2/4/4 6/12/12
f 6/12/12 2/4/4 1/1/1
f 6/12/12 1/1/1 5/11/11
f 13/7/7 14/8/8 9/10/10
f 9/10/10 14/8/8 10/9/9
f 17/14/14 21/15/15 22/16/16
f 3/18/18 15/31/31 35/17/17
f 35/17/17 15/31/31 31/32/32
f 35/17/17 31/32/32 32/21/21
f 4/19/19 7/27/27 3/18/18
f 3/18/18 7/27/27 11/28/28
f 3/18/18 11/28/28 15/31/31
f 15/31/31 11/28/28 12/29/29
f 15/31/31 12/29/29 16/30/30
f 36/20/20 20/25/25 4/19/19
f 4/19/19 20/25/25 8/26/26
f 4/19/19 8/26/26 7/27/27
f 35/17/17 32/21/21 36/20/20
f 36/20/20 32/21/21 24/22/22
f 36/20/20 24/22/22 20/25/25
f 20/25/25 24/22/22 23/23/23
f 20/25/25 23/23/23 19/24/24
f 6/33/33 5/34/34 8/36/36
f 8/36/36 5/34/34 7/35/35
f 26/42/42 22/37/37 28/41/41
f 28/41/41 22/37/37 24/38/38
f 28/41/41 24/38/38 32/39/39
f 32/39/39 30/40/40 28/41/41
f 34/43/43 33/44/44 36/46/46
f 36/46/46 33/44/44 35/45/45
f 2/47/47 34/48/48 4/50/50
f 4/50/50 34/48/48 36/49/49
f 1/51/51 2/52/52 3/54/54
f 3/54/54 2/52/52 4/53/53
f 33/55/55 1/56/56 35/58/58
f 35/58/58 1/56/56 3/57/57
f 11/60/60 7/61/61 9/59/59
f 9/59/59 7/61/61 5/62/62
f 29/63/63 30/64/64 31/66/66
f 31/66/66 30/64/64 32/65/65
f 30/67/67 29/68/68 28/70/70
f 28/70/70 29/68/68 27/69/69
f 28/72/72 27/73/73 26/71/71
f 26/71/71 27/73/73 25/74/74
f 11/75/75 9/76/76 12/78/78
f 12/78/78 9/76/76 10/77/77
f 13/79/79 15/80/80 14/82/82
f 14/82/82 15/80/80 16/81/81
f 10/83/83 14/84/84 12/86/86
f 12/86/86 14/84/84 16/85/85
f 31/92/92 15/87/87 27/90/90
f 27/90/90 15/87/87 13/88/88
f 27/90/90 13/88/88 25/89/89
f 27/90/90 29/91/91 31/92/92
f 24/93/93 22/94/94 23/96/96
f 23/96/96 22/94/94 21/95/95
f 18/97/97 20/98/98 17/100/100
f 17/100/100 20/98/98 19/99/99
f 21/101/101 17/102/102 23/104/104
f 23/104/104 17/102/102 19/103/103
f 18/106/106 6/107/107 20/105/105
f 20/105/105 6/107/107 8/108/108

# 36 vertices
# 108 texture params
# 108 normals
# 72 facets

# 1 groups
