# WaveFront *.obj file (generated by Autodesk ATF)

mtllib two_corner_room.mtl

g Solid3

v -8.100000 0.000000 -6.100000
v -8.100000 0.000000 -2.900000
v -8.100000 2.000000 -6.100000
v -8.100000 2.000000 -2.900000
v -8.000000 0.000000 -6.000000
v -8.000000 0.000000 -3.000000
v -8.000000 2.000000 -6.000000
v -8.000000 2.000000 -3.000000
v -6.100000 0.000000 -2.900000
v -6.100000 0.000000 0.100000
v -6.100000 2.000000 -2.900000
v -6.100000 2.000000 0.100000
v -6.000000 0.000000 -3.000000
v -6.000000 0.000000 0.000000
v -6.000000 2.000000 -3.000000
v -6.000000 2.000000 0.000000
v -3.000000 0.000000 -6.000000
v -3.000000 0.000000 -3.000000
v -3.000000 2.000000 -6.000000
v -3.000000 2.000000 -3.000000
v -2.900000 0.000000 -6.100000
v -2.900000 0.000000 -3.100000
v -2.900000 2.000000 -6.100000
v -2.900000 2.000000 -3.100000
v 0.000000 0.000000 -3.000000
v 0.000000 0.000000 0.000000
v 0.000000 2.000000 -3.000000
v 0.000000 2.000000 0.000000
v 0.100000 0.000000 -3.100000
v 0.100000 0.000000 0.100000
v 0.100000 2.000000 -3.100000
v 0.100000 2.000000 0.100000
vt 0.000000 0.000000 0.000000
vt 7.620000 0.000000 0.000000
vt 7.620000 5.080000 0.000000
vt 0.000000 5.080000 0.000000
vt 0.000000 0.000000 0.000000
vt 12.700000 0.000000 0.000000
vt 12.700000 5.080000 0.000000
vt 0.000000 5.080000 0.000000
vt 0.000000 0.000000 0.000000
vt 7.620000 0.000000 0.000000
vt 7.620000 5.080000 0.000000
vt 0.000000 5.080000 0.000000
vt 0.000000 0.000000 0.000000
vt 5.080000 0.000000 0.000000
vt 5.080000 5.080000 0.000000
vt 0.000000 5.080000 0.000000
vt 0.000000 0.000000 0.000000
vt 7.620000 0.000000 0.000000
vt 7.620000 5.080000 0.000000
vt 0.000000 5.080000 0.000000
vt 0.000000 0.000000 0.000000
vt 15.240000 0.000000 0.000000
vt 15.240000 5.080000 0.000000
vt 0.000000 5.080000 0.000000
vt 0.000000 0.000000 0.000000
vt 7.620000 0.000000 0.000000
vt 7.620000 5.080000 0.000000
vt 0.000000 5.080000 0.000000
vt 0.000000 0.000000 0.000000
vt 7.620000 0.000000 0.000000
vt 7.620000 5.080000 0.000000
vt 0.000000 5.080000 0.000000
vt 0.000000 0.000000 0.000000
vt 7.620000 0.000000 0.000000
vt 7.620000 5.080000 0.000000
vt 0.000000 5.080000 0.000000
vt 0.000000 0.000000 0.000000
vt 5.080000 0.000000 0.000000
vt 5.080000 5.080000 0.000000
vt 0.000000 5.080000 0.000000
vt 0.000000 0.000000 0.000000
vt 8.128000 0.000000 0.000000
vt 8.128000 5.080000 0.000000
vt 0.000000 5.080000 0.000000
vt 0.000000 0.000000 0.000000
vt 13.208000 0.000000 0.000000
vt 13.208000 5.080000 0.000000
vt 0.000000 5.080000 0.000000
vt 0.000000 0.000000 0.000000
vt 7.620000 0.000000 0.000000
vt 7.620000 5.080000 0.000000
vt 0.000000 5.080000 0.000000
vt 0.000000 0.000000 0.000000
vt 7.620000 0.000000 0.000000
vt 7.620000 5.080000 0.000000
vt 0.000000 5.080000 0.000000
vt 0.000000 0.000000 0.000000
vt 8.128000 0.000000 0.000000
vt 8.128000 5.080000 0.000000
vt 0.000000 5.080000 0.000000
vt 0.000000 0.000000 0.000000
vt 15.748000 0.000000 0.000000
vt 15.748000 5.080000 0.000000
vt 0.000000 5.080000 0.000000
vt 7.874000 -5.334000 0.000000
vt 7.874000 10.414000 0.000000
vt -0.254000 10.414000 0.000000
vt -0.254000 2.794000 0.000000
vt -7.874000 2.794000 0.000000
vt -7.874000 -10.414000 0.000000
vt 0.254000 -10.414000 0.000000
vt 0.254000 -5.334000 0.000000
vt 0.000000 2.540000 0.000000
vt 0.000000 10.160000 0.000000
vt 7.620000 10.160000 0.000000
vt 7.620000 -5.080000 0.000000
vt 0.000000 -5.080000 0.000000
vt 0.000000 -10.160000 0.000000
vt -7.620000 -10.160000 0.000000
vt -7.620000 2.540000 0.000000
vt -7.874000 10.414000 0.000000
vt -7.874000 -5.334000 0.000000
vt -0.254000 -5.334000 0.000000
vt -0.254000 -10.414000 0.000000
vt 7.874000 -10.414000 0.000000
vt 7.874000 2.794000 0.000000
vt 0.254000 2.794000 0.000000
vt 0.254000 10.414000 0.000000
vt -0.000000 10.160000 0.000000
vt -0.000000 2.540000 0.000000
vt 7.620000 2.540000 0.000000
vt 7.620000 -10.160000 0.000000
vt -0.000000 -10.160000 0.000000
vt -0.000000 -5.080000 0.000000
vt -7.620000 -5.080000 0.000000
vt -7.620000 10.160000 0.000000
vn -2.540000 0.000000 0.000000
vn -2.540000 0.000000 0.000000
vn -2.540000 0.000000 0.000000
vn -2.540000 0.000000 0.000000
vn 0.000000 0.000000 2.540000
vn 0.000000 0.000000 2.540000
vn 0.000000 0.000000 2.540000
vn 0.000000 0.000000 2.540000
vn 2.540000 0.000000 0.000000
vn 2.540000 0.000000 0.000000
vn 2.540000 0.000000 0.000000
vn 2.540000 0.000000 0.000000
vn 0.000000 0.000000 -2.540000
vn 0.000000 0.000000 -2.540000
vn 0.000000 0.000000 -2.540000
vn 0.000000 0.000000 -2.540000
vn 2.540000 0.000000 0.000000
vn 2.540000 0.000000 0.000000
vn 2.540000 0.000000 0.000000
vn 2.540000 0.000000 0.000000
vn 0.000000 0.000000 -2.540000
vn 0.000000 0.000000 -2.540000
vn 0.000000 0.000000 -2.540000
vn 0.000000 0.000000 -2.540000
vn -2.540000 0.000000 0.000000
vn -2.540000 0.000000 0.000000
vn -2.540000 0.000000 0.000000
vn -2.540000 0.000000 0.000000
vn 0.000000 0.000000 2.540000
vn 0.000000 0.000000 2.540000
vn 0.000000 0.000000 2.540000
vn 0.000000 0.000000 2.540000
vn -2.540000 0.000000 0.000000
vn -2.540000 0.000000 0.000000
vn -2.540000 0.000000 0.000000
vn -2.540000 0.000000 0.000000
vn 0.000000 0.000000 2.540000
vn 0.000000 0.000000 2.540000
vn 0.000000 0.000000 2.540000
vn 0.000000 0.000000 2.540000
vn -2.540000 0.000000 0.000000
vn -2.540000 0.000000 0.000000
vn -2.540000 0.000000 0.000000
vn -2.540000 0.000000 0.000000
vn 0.000000 0.000000 -2.540000
vn 0.000000 0.000000 -2.540000
vn 0.000000 0.000000 -2.540000
vn 0.000000 0.000000 -2.540000
vn 2.540000 0.000000 0.000000
vn 2.540000 0.000000 0.000000
vn 2.540000 0.000000 0.000000
vn 2.540000 0.000000 0.000000
vn 0.000000 0.000000 -2.540000
vn 0.000000 0.000000 -2.540000
vn 0.000000 0.000000 -2.540000
vn 0.000000 0.000000 -2.540000
vn 2.540000 0.000000 0.000000
vn 2.540000 0.000000 0.000000
vn 2.540000 0.000000 0.000000
vn 2.540000 0.000000 0.000000
vn 0.000000 0.000000 2.540000
vn 0.000000 0.000000 2.540000
vn 0.000000 0.000000 2.540000
vn 0.000000 0.000000 2.540000
vn 0.000000 2.540000 0.000000
vn 0.000000 2.540000 0.000000
vn 0.000000 2.540000 0.000000
vn 0.000000 2.540000 0.000000
vn 0.000000 2.540000 0.000000
vn 0.000000 2.540000 0.000000
vn 0.000000 2.540000 0.000000
vn 0.000000 2.540000 0.000000
vn 0.000000 2.540000 0.000000
vn 0.000000 2.540000 0.000000
vn 0.000000 2.540000 0.000000
vn 0.000000 2.540000 0.000000
vn 0.000000 2.540000 0.000000
vn 0.000000 2.540000 0.000000
vn 0.000000 2.540000 0.000000
vn 0.000000 2.540000 0.000000
vn 0.000000 -2.540000 0.000000
vn 0.000000 -2.540000 0.000000
vn 0.000000 -2.540000 0.000000
vn 0.000000 -2.540000 0.000000
vn 0.000000 -2.540000 0.000000
vn 0.000000 -2.540000 0.000000
vn 0.000000 -2.540000 0.000000
vn 0.000000 -2.540000 0.000000
vn 0.000000 -2.540000 0.000000
vn 0.000000 -2.540000 0.000000
vn 0.000000 -2.540000 0.000000
vn 0.000000 -2.540000 0.000000
vn 0.000000 -2.540000 0.000000
vn 0.000000 -2.540000 0.000000
vn 0.000000 -2.540000 0.000000
vn 0.000000 -2.540000 0.000000
usemtl 191,191,191
f 17/1/1 18/2/2 19/4/4
f 19/4/4 18/2/2 20/3/3
f 5/5/5 17/6/6 7/8/8
f 7/8/8 17/6/6 19/7/7
f 6/9/9 5/10/10 8/12/12
f 8/12/12 5/10/10 7/11/11
f 13/13/13 6/14/14 15/16/16
f 15/16/16 6/14/14 8/15/15
f 14/17/17 13/18/18 16/20/20
f 16/20/20 13/18/18 15/19/19
f 26/21/21 14/22/22 28/24/24
f 28/24/24 14/22/22 16/23/23
f 25/25/25 26/26/26 27/28/28
f 27/28/28 26/26/26 28/27/27
f 18/29/29 25/30/30 20/32/32
f 20/32/32 25/30/30 27/31/31
f 9/33/33 10/34/34 11/36/36
f 11/36/36 10/34/34 12/35/35
f 2/37/37 9/38/38 4/40/40
f 4/40/40 9/38/38 11/39/39
f 1/41/41 2/42/42 3/44/44
f 3/44/44 2/42/42 4/43/43
f 21/45/45 1/46/46 23/48/48
f 23/48/48 1/46/46 3/47/47
f 22/49/49 21/50/50 24/52/52
f 24/52/52 21/50/50 23/51/51
f 29/53/53 22/54/54 31/56/56
f 31/56/56 22/54/54 24/55/55
f 30/57/57 29/58/58 32/60/60
f 32/60/60 29/58/58 31/59/59
f 10/61/61 30/62/62 12/64/64
f 12/64/64 30/62/62 32/63/63
f 32/66/66 28/75/75 12/65/65
f 12/65/65 28/75/75 16/76/76
f 12/65/65 16/76/76 11/72/72
f 11/72/72 16/76/76 15/77/77
f 11/72/72 15/77/77 8/78/78
f 32/66/66 31/67/67 28/75/75
f 28/75/75 31/67/67 27/74/74
f 27/74/74 31/67/67 24/68/68
f 27/74/74 24/68/68 20/73/73
f 20/73/73 24/68/68 19/80/80
f 19/80/80 24/68/68 23/69/69
f 19/80/80 23/69/69 3/70/70
f 19/80/80 3/70/70 7/79/79
f 7/79/79 3/70/70 4/71/71
f 7/79/79 4/71/71 8/78/78
f 8/78/78 4/71/71 11/72/72
f 10/82/82 26/96/96 30/81/81
f 30/81/81 26/96/96 25/89/89
f 30/81/81 25/89/89 29/88/88
f 29/88/88 25/89/89 22/87/87
f 22/87/87 25/89/89 18/90/90
f 22/87/87 18/90/90 17/91/91
f 26/96/96 10/82/82 14/95/95
f 14/95/95 10/82/82 9/83/83
f 14/95/95 9/83/83 13/94/94
f 13/94/94 9/83/83 6/93/93
f 6/93/93 9/83/83 2/84/84
f 6/93/93 2/84/84 1/85/85
f 21/86/86 17/91/91 1/85/85
f 1/85/85 17/91/91 5/92/92
f 1/85/85 5/92/92 6/93/93
f 21/86/86 22/87/87 17/91/91

# 32 vertices
# 96 texture params
# 96 normals
# 64 facets

# 1 groups
