# WaveFront *.obj file (generated by Autodesk ATF)

mtllib wider_room.mtl

g Solid2

v -8.100000 0.000000 -3.100000
v -8.100000 0.000000 0.100000
v -8.100000 1.500000 -3.100000
v -8.100000 1.500000 0.100000
v -8.000000 0.000000 -3.000000
v -8.000000 0.000000 0.000000
v -8.000000 1.500000 -3.000000
v -8.000000 1.500000 0.000000
v 0.000000 0.000000 -3.000000
v 0.000000 0.000000 0.000000
v 0.000000 1.500000 -3.000000
v 0.000000 1.500000 0.000000
v 0.100000 0.000000 -3.100000
v 0.100000 0.000000 0.100000
v 0.100000 1.500000 -3.100000
v 0.100000 1.500000 0.100000
vt 0.000000 0.000000 0.000000
vt 7.620000 0.000000 0.000000
vt 7.620000 3.810000 0.000000
vt 0.000000 3.810000 0.000000
vt 0.000000 0.000000 0.000000
vt 20.320000 0.000000 0.000000
vt 20.320000 3.810000 0.000000
vt 0.000000 3.810000 0.000000
vt 0.000000 0.000000 0.000000
vt 7.620000 0.000000 0.000000
vt 7.620000 3.810000 0.000000
vt 0.000000 3.810000 0.000000
vt 0.000000 0.000000 0.000000
vt 20.320000 0.000000 0.000000
vt 20.320000 3.810000 0.000000
vt 0.000000 3.810000 0.000000
vt 0.000000 0.000000 0.000000
vt 20.827999 0.000000 0.000000
vt 20.827999 3.810000 0.000000
vt 0.000000 3.810000 0.000000
vt 0.000000 0.000000 0.000000
vt 8.128000 0.000000 0.000000
vt 8.128000 3.810000 0.000000
vt 0.000000 3.810000 0.000000
vt 0.000000 0.000000 0.000000
vt 20.827999 0.000000 0.000000
vt 20.827999 3.810000 0.000000
vt 0.000000 3.810000 0.000000
vt 0.000000 0.000000 0.000000
vt 8.128000 0.000000 0.000000
vt 8.128000 3.810000 0.000000
vt 0.000000 3.810000 0.000000
vt -4.064000 -10.414000 0.000000
vt 4.064000 -10.414000 0.000000
vt 4.064000 10.414000 0.000000
vt -4.064000 10.414000 0.000000
vt 3.810000 10.160000 0.000000
vt 3.810000 -10.160000 0.000000
vt -3.810000 -10.160000 0.000000
vt -3.810000 10.160000 0.000000
vt -4.064000 -10.414000 0.000000
vt 4.064000 -10.414000 0.000000
vt 4.064000 10.414000 0.000000
vt -4.064000 10.414000 0.000000
vt -3.810000 -10.160000 0.000000
vt -3.810000 10.160000 0.000000
vt 3.810000 10.160000 0.000000
vt 3.810000 -10.160000 0.000000
vn -2.540000 0.000000 0.000000
vn -2.540000 0.000000 0.000000
vn -2.540000 0.000000 0.000000
vn -2.540000 0.000000 0.000000
vn 0.000000 0.000000 2.540000
vn 0.000000 0.000000 2.540000
vn 0.000000 0.000000 2.540000
vn 0.000000 0.000000 2.540000
vn 2.540000 0.000000 0.000000
vn 2.540000 0.000000 0.000000
vn 2.540000 0.000000 0.000000
vn 2.540000 0.000000 0.000000
vn 0.000000 0.000000 -2.540000
vn 0.000000 0.000000 -2.540000
vn 0.000000 0.000000 -2.540000
vn 0.000000 0.000000 -2.540000
vn 0.000000 0.000000 -2.540000
vn 0.000000 0.000000 -2.540000
vn 0.000000 0.000000 -2.540000
vn 0.000000 0.000000 -2.540000
vn 2.540000 0.000000 0.000000
vn 2.540000 0.000000 0.000000
vn 2.540000 0.000000 0.000000
vn 2.540000 0.000000 0.000000
vn 0.000000 0.000000 2.540000
vn 0.000000 0.000000 2.540000
vn 0.000000 0.000000 2.540000
vn 0.000000 0.000000 2.540000
vn -2.540000 0.000000 0.000000
vn -2.540000 0.000000 0.000000
vn -2.540000 0.000000 0.000000
vn -2.540000 0.000000 0.000000
vn 0.000000 2.540000 0.000000
vn 0.000000 2.540000 0.000000
vn 0.000000 2.540000 0.000000
vn 0.000000 2.540000 0.000000
vn 0.000000 2.540000 0.000000
vn 0.000000 2.540000 0.000000
vn 0.000000 2.540000 0.000000
vn 0.000000 2.540000 0.000000
vn 0.000000 -2.540000 0.000000
vn 0.000000 -2.540000 0.000000
vn 0.000000 -2.540000 0.000000
vn 0.000000 -2.540000 0.000000
vn 0.000000 -2.540000 0.000000
vn 0.000000 -2.540000 0.000000
vn 0.000000 -2.540000 0.000000
vn 0.000000 -2.540000 0.000000
usemtl 191,191,191
f 9/1/1 10/2/2 11/4/4
f 11/4/4 10/2/2 12/3/3
f 5/5/5 9/6/6 7/8/8
f 7/8/8 9/6/6 11/7/7
f 6/9/9 5/10/10 8/12/12
f 8/12/12 5/10/10 7/11/11
f 10/13/13 6/14/14 12/16/16
f 12/16/16 6/14/14 8/15/15
f 13/17/17 1/18/18 15/20/20
f 15/20/20 1/18/18 3/19/19
f 14/21/21 13/22/22 16/24/24
f 16/24/24 13/22/22 15/23/23
f 2/25/25 14/26/26 4/28/28
f 4/28/28 14/26/26 16/27/27
f 1/29/29 2/30/30 3/32/32
f 3/32/32 2/30/30 4/31/31
f 4/34/34 7/39/39 3/33/33
f 3/33/33 7/39/39 11/40/40
f 3/33/33 11/40/40 15/36/36
f 15/36/36 11/40/40 12/37/37
f 15/36/36 12/37/37 16/35/35
f 16/35/35 12/37/37 4/34/34
f 4/34/34 12/37/37 8/38/38
f 4/34/34 8/38/38 7/39/39
f 1/42/42 6/45/45 2/41/41
f 2/41/41 6/45/45 10/46/46
f 2/41/41 10/46/46 14/44/44
f 14/44/44 10/46/46 9/47/47
f 14/44/44 9/47/47 13/43/43
f 13/43/43 9/47/47 1/42/42
f 1/42/42 9/47/47 5/48/48
f 1/42/42 5/48/48 6/45/45

# 16 vertices
# 48 texture params
# 48 normals
# 32 facets

# 1 groups
